<svg width="15" height="15" viewBox="0 0 15 15" fill="none" xmlns="http://www.w3.org/2000/svg">
<g clip-path="url(#clip0_61_2848)">
<path d="M14.8213 7.64036C14.8213 7.02582 14.7714 6.57736 14.6635 6.1123H7.646V8.88604H11.7651C11.6821 9.57536 11.2336 10.6134 10.237 11.311L10.2231 11.4039L12.4419 13.1227L12.5956 13.1381C14.0074 11.8342 14.8213 9.91584 14.8213 7.64036Z" fill="#4285F4"/>
<path d="M7.64599 14.9485C9.66401 14.9485 11.3581 14.2841 12.5956 13.1381L10.237 11.311C9.6059 11.7512 8.7588 12.0584 7.64599 12.0584C5.66948 12.0584 3.99194 10.7546 3.39395 8.95251L3.3063 8.95996L0.999158 10.7455L0.968987 10.8293C2.19807 13.2709 4.72271 14.9485 7.64599 14.9485Z" fill="#34A853"/>
<path d="M3.39395 8.9525C3.23616 8.48744 3.14484 7.98912 3.14484 7.47425C3.14484 6.95933 3.23616 6.46107 3.38565 5.99601L3.38147 5.89696L1.04542 4.08276L0.968986 4.11912C0.462421 5.13231 0.171753 6.27007 0.171753 7.47425C0.171753 8.67843 0.462421 9.81614 0.968986 10.8293L3.39395 8.9525Z" fill="#FBBC05"/>
<path d="M7.64599 2.89002C9.04946 2.89002 9.99618 3.49626 10.536 4.00288L12.6454 1.9433C11.3499 0.739122 9.66401 0 7.64599 0C4.72271 0 2.19807 1.67754 0.968987 4.1191L3.38565 5.99599C3.99194 4.19387 5.66948 2.89002 7.64599 2.89002Z" fill="#EB4335"/>
</g>
<defs>
<clipPath id="clip0_61_2848">
<rect width="15" height="15" fill="white"/>
</clipPath>
</defs>
</svg>
