<svg width="15" height="15" viewBox="0 0 15 15" fill="none" xmlns="http://www.w3.org/2000/svg">
<g clip-path="url(#clip0_61_2843)">
<path d="M10.3866 0C10.4216 0 10.4565 0 10.4933 0C10.579 1.05783 10.1752 1.84824 9.68449 2.42063C9.203 2.98907 8.54367 3.54038 7.47728 3.45673C7.40614 2.41404 7.81057 1.68226 8.30062 1.11118C8.7551 0.578975 9.58833 0.105388 10.3866 0Z" fill="black"/>
<path d="M13.6148 11.0104C13.6148 11.0209 13.6148 11.0301 13.6148 11.04C13.3151 11.9477 12.8876 12.7256 12.366 13.4475C11.8897 14.1028 11.3061 14.9848 10.2641 14.9848C9.36372 14.9848 8.76564 14.4058 7.84284 14.39C6.86668 14.3742 6.32986 14.8741 5.43736 15C5.33526 15 5.23317 15 5.13305 15C4.47767 14.9051 3.94875 14.3861 3.56343 13.9184C2.42721 12.5365 1.5492 10.7515 1.38585 8.46722C1.38585 8.24327 1.38585 8.01998 1.38585 7.79603C1.45501 6.1612 2.24937 4.83199 3.30523 4.18781C3.86247 3.8453 4.6285 3.5535 5.48149 3.68392C5.84705 3.74057 6.22052 3.86572 6.54788 3.98955C6.85812 4.10877 7.24608 4.3202 7.61362 4.309C7.8626 4.30176 8.11026 4.172 8.36121 4.08044C9.0963 3.815 9.81689 3.51069 10.7667 3.65362C11.9082 3.8262 12.7183 4.33338 13.2189 5.11588C12.2533 5.73042 11.4899 6.65652 11.6203 8.238C11.7363 9.67457 12.5715 10.515 13.6148 11.0104Z" fill="black"/>
</g>
<defs>
<clipPath id="clip0_61_2843">
<rect width="15" height="15" fill="white"/>
</clipPath>
</defs>
</svg>
