<svg width="20" height="20" viewBox="0 0 20 20" fill="none" xmlns="http://www.w3.org/2000/svg">
    <g clip-path="url(#clip0_61_2840)">
        <path
            d="M10 20C15.5228 20 20 15.5228 20 10C20 4.47715 15.5228 0 10 0C4.47715 0 0 4.47715 0 10C0 15.5228 4.47715 20 10 20Z"
            fill="#3C5A9A" />
        <path
            d="M13.2516 3.06946H11.0363C9.72173 3.06946 8.25952 3.62236 8.25952 5.52793C8.26594 6.1919 8.25952 6.82779 8.25952 7.54345H6.73871V9.96352H8.30659V16.9305H11.1876V9.91754H13.0892L13.2613 7.53666H11.138C11.138 7.53666 11.1427 6.47754 11.138 6.16997C11.138 5.41693 11.9216 5.46005 11.9687 5.46005C12.3416 5.46005 13.0666 5.46114 13.2527 5.46005V3.06946H13.2516Z"
            fill="white" />
    </g>
    <defs>
        <clipPath id="clip0_61_2840">
            <rect width="20" height="20" fill="white" />
        </clipPath>
    </defs>
</svg>